<mxfile host="app.diagrams.net" modified="2024-06-08T00:42:12.843Z" agent="Mozilla/5.0 (Windows NT 10.0; Win64; x64) AppleWebKit/537.36 (KHTML, like Gecko) Chrome/125.0.0.0 Safari/537.36" version="24.5.1" etag="uKyi3KIqG40m_S1r1Ngn" type="github">
  <diagram name="ページ1" id="yhcsP0S60n4OFiduqhQo">
    <mxGraphModel>
      <root>
        <mxCell id="0" />
        <mxCell id="1" parent="0" />
      </root>
    </mxGraphModel>
  </diagram>
</mxfile>
